<svg xmlns="http://www.w3.org/2000/svg" xmlns:xlink="http://www.w3.org/1999/xlink" width="512" zoomAndPan="magnify" viewBox="0 0 384 383.999986" height="512" preserveAspectRatio="xMidYMid meet" version="1.0"><defs><clipPath id="91810059e9"><path d="M 16.363281 8.183594 L 383.863281 8.183594 L 383.863281 375.683594 L 16.363281 375.683594 Z M 16.363281 8.183594 " clip-rule="nonzero"/></clipPath></defs><g clip-path="url(#91810059e9)"><path fill="#00baff" d="M 237.121094 56.105469 C 248.808594 59.253906 259.886719 63.898438 270.117188 69.8125 L 310.863281 42.730469 L 349.445312 81.3125 L 322.410156 122.058594 C 328.277344 132.289062 332.921875 143.367188 336.070312 155.054688 L 383.992188 164.726562 L 383.992188 219.269531 L 336.070312 228.984375 C 332.921875 240.671875 328.277344 251.75 322.363281 261.984375 L 349.398438 302.679688 L 310.816406 341.265625 L 270.117188 314.226562 C 262.65625 318.5 254.722656 322.160156 246.460938 325.023438 C 252.234375 287.613281 267.773438 272.261719 283.167969 239.21875 C 288.613281 227.53125 291.664062 214.527344 291.710938 200.820312 C 291.804688 152.472656 252.796875 111.402344 204.496094 109.195312 C 152.019531 106.800781 108.695312 148.671875 108.695312 200.632812 C 108.695312 214.433594 111.746094 227.53125 117.238281 239.265625 C 132.632812 272.355469 148.171875 287.707031 153.945312 325.117188 C 145.683594 322.253906 137.75 318.59375 130.285156 314.320312 L 89.542969 341.359375 L 50.957031 302.773438 L 77.996094 262.078125 C 72.128906 251.796875 67.480469 240.71875 64.289062 229.078125 L 16.363281 219.269531 L 16.363281 164.726562 L 64.242188 155.054688 C 67.386719 143.367188 72.035156 132.289062 77.949219 122.011719 L 50.910156 81.265625 L 89.496094 42.683594 L 130.238281 69.765625 C 140.519531 63.898438 151.550781 59.253906 163.238281 56.058594 L 172.90625 8.183594 L 227.449219 8.183594 Z M 169.902344 329.152344 L 163.472656 329.152344 L 172.90625 375.8125 L 227.449219 375.8125 L 236.839844 329.152344 L 230.40625 329.152344 C 222.101562 291.179688 218.625 262.640625 218.390625 241.425781 C 218.34375 236.449219 218.4375 231.941406 218.71875 227.765625 C 229.9375 225.699219 240.40625 221.710938 248.855469 215.796875 C 258.617188 208.988281 261.808594 201.054688 260.917969 194.203125 C 260.449219 190.496094 258.804688 187.207031 256.320312 184.535156 C 253.925781 181.953125 250.78125 180.027344 247.210938 178.996094 C 239.609375 176.789062 230.125 178.570312 222.335938 187.160156 C 216.890625 193.171875 212.382812 203.496094 210.410156 219.878906 C 206.984375 220.253906 203.558594 220.441406 200.085938 220.441406 C 196.613281 220.441406 193.183594 220.253906 189.757812 219.878906 C 187.785156 203.496094 183.28125 193.171875 177.835938 187.160156 C 170.042969 178.570312 160.5625 176.789062 152.957031 178.996094 C 149.390625 180.027344 146.199219 182 143.851562 184.535156 C 141.410156 187.160156 139.722656 190.496094 139.25 194.203125 C 138.359375 201.054688 141.550781 208.988281 151.316406 215.796875 C 159.765625 221.710938 170.277344 225.699219 181.449219 227.765625 C 181.730469 231.894531 181.824219 236.449219 181.777344 241.425781 C 181.683594 262.640625 178.257812 291.179688 169.902344 329.152344 Z M 221.253906 329.152344 C 213.085938 291.507812 209.707031 262.921875 209.472656 241.472656 C 209.425781 237.011719 209.519531 232.882812 209.707031 228.984375 C 206.5625 229.265625 203.371094 229.40625 200.179688 229.40625 C 196.988281 229.40625 193.796875 229.265625 190.648438 228.984375 C 190.886719 232.882812 190.933594 237.011719 190.886719 241.472656 C 190.648438 262.921875 187.269531 291.460938 179.101562 329.152344 Z M 180.652344 218.421875 C 178.867188 205.703125 175.394531 197.769531 171.265625 193.21875 C 166.101562 187.539062 160.1875 186.269531 155.539062 187.632812 C 153.566406 188.195312 151.785156 189.273438 150.515625 190.683594 C 149.296875 191.996094 148.5 193.59375 148.265625 195.328125 C 147.792969 199.132812 150 203.871094 156.574219 208.425781 C 163.332031 213.167969 171.640625 216.5 180.652344 218.421875 Z M 219.707031 218.421875 C 228.71875 216.5 237.027344 213.167969 243.785156 208.472656 C 250.355469 203.871094 252.5625 199.179688 252.09375 195.375 C 251.859375 193.640625 251.0625 192.042969 249.839844 190.730469 C 248.527344 189.320312 246.789062 188.242188 244.816406 187.679688 C 240.21875 186.316406 234.257812 187.632812 229.09375 193.265625 C 224.964844 197.769531 221.488281 205.703125 219.707031 218.421875 Z M 219.707031 218.421875 " fill-opacity="1" fill-rule="evenodd"/></g></svg>